<svg width="433" height="749" viewBox="0 0 433 749" fill="none" xmlns="http://www.w3.org/2000/svg">
<path fill-rule="evenodd" clip-rule="evenodd" d="M8.88397 283.817L172.709 0H194.361L25.1415 293.139C20.9519 300.411 18.7466 308.657 18.7466 317.049C18.7466 325.442 20.9519 333.688 25.1415 340.96L235.569 705.53C239.777 712.79 245.816 718.817 253.084 723.011C260.352 727.204 268.594 729.416 276.984 729.425H433V748.13H276.984C265.305 748.128 253.83 745.059 243.709 739.229C233.588 733.4 225.175 725.015 219.312 714.914L8.88397 350.344C3.06332 340.224 -0.00012207 328.755 -0.00012207 317.081C-0.00012207 305.407 3.06332 293.937 8.88397 283.817Z" fill="#180636"/>
</svg>
