<svg width="604" height="219" viewBox="0 0 604 219" fill="none" xmlns="http://www.w3.org/2000/svg">
<g filter="url(#filter0_d_28_46)">
<path d="M314.668 90.9519C313.265 95.6677 311.249 99.6247 308.62 102.823C306.05 106.027 302.738 108.557 298.971 110.193C295.16 111.86 290.795 112.694 285.876 112.694C281.01 112.694 276.645 111.87 272.781 110.224C268.955 108.605 265.59 106.062 262.987 102.823C260.313 99.6224 258.275 95.6654 256.873 90.9519C255.472 86.2384 254.771 80.8352 254.771 74.7422V52.3072C254.771 46.2142 255.472 40.8109 256.873 36.0975C258.275 31.384 260.313 27.404 262.987 24.1574C265.575 20.9445 268.901 18.4053 272.681 16.7561C276.517 15.0708 280.868 14.227 285.731 14.2247C290.639 14.2247 295.009 15.0685 298.844 16.7561C302.638 18.4145 305.984 20.9513 308.607 24.1574C311.235 27.4017 313.251 31.3817 314.655 36.0975C316.058 40.8132 316.759 46.2165 316.757 52.3072V74.7249C316.766 80.8271 316.07 86.2361 314.668 90.9519ZM304.282 43.685C303.998 40.8236 303.368 38.0072 302.407 35.2973C301.619 33.0377 300.378 30.9628 298.761 29.1997C297.259 27.5261 295.376 26.24 293.271 25.4508C290.861 24.575 288.309 24.1506 285.745 24.1988C283.13 24.1501 280.529 24.608 278.088 25.5473C275.935 26.4036 274.008 27.747 272.46 29.4722C270.622 31.622 269.253 34.396 268.352 37.7943C267.452 41.1926 267.003 45.1289 267.005 49.6033V72.3107L304.282 43.685ZM304.544 63.7506V55.3284L267.326 83.8127C267.644 86.7122 268.351 89.5555 269.428 92.2659C270.318 94.5208 271.661 96.5691 273.373 98.2842C274.898 99.7991 276.738 100.957 278.763 101.674C281.044 102.469 283.447 102.858 285.862 102.823C288.372 102.868 290.868 102.444 293.223 101.574C295.292 100.795 297.157 99.5582 298.682 97.9566C300.694 95.8068 302.173 92.9994 303.117 89.5344C304.061 86.0694 304.532 81.9917 304.53 77.3012L304.544 63.7506Z" fill="#180636"/>
</g>
<g filter="url(#filter1_d_28_46)">
<path d="M385.859 40.1947H400.122L373.632 75.3905L400.856 111.376H386.789L367.146 84.2714L347.503 111.376H333.305L360.53 75.3905L334.039 40.1947H348.106L366.905 66.5752L385.859 40.1947Z" fill="#180636"/>
</g>
<g filter="url(#filter2_d_28_46)">
<path d="M296.184 191.794C295.077 194.4 293.487 196.773 291.497 198.788C289.534 200.811 287.181 202.415 284.581 203.503C281.741 204.669 278.69 205.231 275.621 205.155C273.058 205.193 270.511 204.754 268.108 203.861C265.947 203.042 263.94 201.861 262.174 200.368C260.385 198.898 258.843 197.152 257.605 195.194C256.332 193.191 255.28 191.055 254.469 188.824C253.637 186.514 253.013 184.134 252.604 181.713C252.186 179.3 251.956 176.859 251.915 174.411V164.306C251.956 161.85 252.187 159.401 252.604 156.981C253.011 154.551 253.635 152.163 254.469 149.845C255.282 147.611 256.342 145.474 257.629 143.475C258.874 141.53 260.406 139.786 262.174 138.302C263.937 136.811 265.945 135.637 268.108 134.832C270.516 133.954 273.059 133.508 275.621 133.515C278.733 133.434 281.827 133.997 284.712 135.167C287.302 136.24 289.647 137.828 291.604 139.836C293.591 141.875 295.174 144.272 296.27 146.9C297.462 149.733 298.228 152.727 298.545 155.784H292.883C292.523 153.471 291.906 151.206 291.042 149.031C290.242 147 289.101 145.121 287.669 143.475C286.251 141.902 284.524 140.639 282.596 139.764C280.395 138.803 278.011 138.333 275.611 138.384C273.552 138.384 271.512 138.782 269.604 139.557C267.888 140.273 266.322 141.305 264.986 142.599C263.626 143.906 262.479 145.419 261.588 147.082C260.655 148.813 259.903 150.634 259.342 152.518C258.765 154.436 258.341 156.396 258.073 158.381C257.806 160.309 257.671 162.253 257.667 164.199V174.398C257.67 176.344 257.806 178.288 258.073 180.216C258.341 182.201 258.765 184.161 259.342 186.079C259.901 187.96 260.646 189.781 261.564 191.514C262.448 193.188 263.586 194.715 264.938 196.039C266.279 197.354 267.853 198.407 269.58 199.143C271.493 199.923 273.545 200.306 275.611 200.268C278.013 200.351 280.405 199.91 282.62 198.974C284.56 198.119 286.297 196.863 287.717 195.287C289.136 193.676 290.262 191.828 291.042 189.828C291.91 187.635 292.527 185.351 292.883 183.02H298.531C298.179 186.043 297.389 188.999 296.184 191.794Z" fill="#180636"/>
</g>
<g filter="url(#filter3_d_28_46)">
<path d="M348.796 200.509C348.619 199.201 348.504 197.876 348.451 196.536C347.445 197.863 346.279 199.06 344.981 200.102C343.653 201.176 342.199 202.085 340.652 202.809C339.041 203.58 337.347 204.167 335.604 204.558C333.793 204.959 331.944 205.159 330.09 205.155C327.8 205.176 325.521 204.826 323.343 204.12C321.355 203.48 319.504 202.473 317.887 201.151C316.364 199.883 315.125 198.308 314.252 196.529C313.339 194.641 312.88 192.566 312.911 190.469C312.911 187.503 313.573 184.982 314.896 182.906C316.249 180.802 318.078 179.047 320.234 177.781C322.631 176.431 325.233 175.485 327.936 174.98C330.978 174.377 334.071 174.064 337.172 174.046H348.417V168.19C348.423 166.409 348.031 164.649 347.269 163.04C346.561 161.589 345.529 160.319 344.254 159.329C342.9 158.299 341.367 157.529 339.732 157.057C336.164 156.024 332.38 155.999 328.798 156.984C327.196 157.425 325.677 158.124 324.301 159.054C323.046 159.925 321.979 161.04 321.165 162.333C320.346 163.648 319.907 165.164 319.896 166.713L314.155 166.669C314.234 164.525 314.842 162.435 315.926 160.585C317.043 158.701 318.524 157.06 320.282 155.756C322.206 154.36 324.348 153.291 326.62 152.594C329.122 151.814 331.729 151.427 334.349 151.445C336.954 151.426 339.548 151.782 342.051 152.501C344.316 153.135 346.442 154.188 348.32 155.605C350.083 157.053 351.511 158.866 352.507 160.919C353.589 163.226 354.137 165.748 354.11 168.297V193.342C354.11 195.108 354.263 196.869 354.564 198.609C354.854 200.303 355.23 201.981 355.691 203.637L355.736 204.213H349.585C349.221 203.002 348.957 201.763 348.796 200.509V200.509ZM336.427 199.336C338.186 198.87 339.875 198.174 341.452 197.267C342.953 196.396 344.322 195.314 345.518 194.056C346.687 192.826 347.655 191.42 348.389 189.89V178.509H337.958C335.246 178.529 332.541 178.77 329.869 179.229C327.551 179.59 325.326 180.403 323.322 181.623C321.919 182.484 320.732 183.656 319.852 185.048C319.078 186.434 318.647 187.985 318.593 189.571C318.539 191.158 318.864 192.734 319.541 194.17C320.165 195.397 321.047 196.475 322.126 197.329C323.265 198.252 324.574 198.944 325.979 199.364C327.506 199.832 329.096 200.064 330.693 200.054C332.629 200.087 334.559 199.845 336.427 199.336Z" fill="#180636"/>
</g>
<g filter="url(#filter4_d_28_46)">
<path d="M411.34 151.687C412.58 151.819 413.806 152.068 414.999 152.432L414.234 157.984C412.925 157.699 411.602 157.476 410.264 157.315C408.898 157.154 407.523 157.073 406.146 157.074C403.847 157.059 401.556 157.342 399.33 157.915C397.285 158.438 395.349 159.321 393.613 160.523C391.953 161.703 390.519 163.171 389.377 164.858C388.11 166.754 387.177 168.854 386.621 171.066L386.669 204.206H380.783V152.383H386.238L386.583 160.381V162.671C388.517 159.209 391.357 156.339 394.798 154.37C398.274 152.376 402.357 151.395 407.046 151.425C408.481 151.427 409.915 151.514 411.34 151.687V151.687Z" fill="#180636"/>
</g>
<g filter="url(#filter5_d_28_46)">
<path d="M473.135 185.161C472.83 187.192 472.332 189.189 471.646 191.125C470.913 193.234 469.908 195.239 468.655 197.088C466.458 200.478 463.152 203 459.302 204.22C457.358 204.864 455.32 205.179 453.271 205.155C451.439 205.166 449.612 204.934 447.84 204.465C446.172 204.019 444.572 203.351 443.081 202.478C441.971 201.848 440.931 201.101 439.98 200.25C439.036 199.401 438.193 198.445 437.468 197.402L437.23 204.203H431.919V130.642H437.612V159.567C438.407 158.382 439.332 157.288 440.369 156.308C441.401 155.335 442.541 154.483 443.767 153.77C445.164 153.026 446.641 152.448 448.171 152.045C449.796 151.621 451.469 151.411 453.147 151.421C455.341 151.394 457.524 151.735 459.605 152.428C461.472 153.056 463.22 153.995 464.775 155.205C466.233 156.375 467.51 157.754 468.565 159.298C469.668 160.927 470.592 162.669 471.322 164.496C472.108 166.553 472.677 168.687 473.021 170.862C473.39 173.16 473.589 175.482 473.617 177.808V178.812C473.601 180.937 473.44 183.058 473.135 185.161V185.161ZM467.535 172.711C467.326 171.049 466.98 169.408 466.501 167.803C465.945 166.114 465.199 164.494 464.275 162.975C463.402 161.531 462.256 160.27 460.901 159.264C459.736 158.372 458.435 157.673 457.048 157.195C455.469 156.663 453.811 156.405 452.145 156.429C450.479 156.415 448.823 156.673 447.241 157.195C445.776 157.679 444.395 158.39 443.15 159.302C440.622 161.178 438.704 163.76 437.636 166.724V190.621C438.191 192.06 438.983 193.396 439.98 194.573C440.96 195.731 442.105 196.739 443.378 197.564C444.649 198.408 446.044 199.046 447.513 199.457C449.047 199.89 450.634 200.107 452.227 200.102C453.927 200.127 455.618 199.86 457.228 199.312C458.653 198.817 459.974 198.063 461.125 197.088C462.421 196.042 463.523 194.777 464.382 193.349C465.29 191.847 466.013 190.239 466.532 188.562C467.02 187 467.366 185.396 467.566 183.772C467.768 182.119 467.883 180.456 467.911 178.791V177.812C467.881 176.106 467.755 174.403 467.535 172.711Z" fill="#180636"/>
</g>
<g filter="url(#filter6_d_28_46)">
<path d="M489.067 167.517C490.047 164.495 491.591 161.687 493.615 159.24C495.593 156.845 498.061 154.902 500.852 153.542C503.692 152.137 506.93 151.435 510.567 151.435C513.908 151.38 517.218 152.097 520.237 153.532C523.033 154.892 525.517 156.816 527.532 159.185C529.52 161.666 531.039 164.49 532.012 167.517C533.077 170.744 533.626 174.12 533.639 177.519V179.102C533.629 182.499 533.088 185.874 532.036 189.104C531.063 192.132 529.53 194.951 527.515 197.412C525.525 199.782 523.06 201.707 520.278 203.061C517.269 204.503 513.965 205.225 510.629 205.168C507.26 205.231 503.921 204.524 500.866 203.099C498.063 201.769 495.591 199.831 493.629 197.426C491.579 194.989 490.019 192.178 489.035 189.148C487.974 185.921 487.441 182.544 487.457 179.147V177.564C487.445 174.15 487.989 170.756 489.067 167.517V167.517ZM494.332 187.055C495.037 189.487 496.171 191.773 497.682 193.804C499.123 195.771 500.987 197.39 503.137 198.54C505.456 199.741 508.039 200.343 510.65 200.288C513.23 200.343 515.781 199.741 518.066 198.54C520.201 197.376 522.061 195.767 523.521 193.822C524.992 191.768 526.101 189.477 526.798 187.048C527.553 184.471 527.948 181.801 527.97 179.116V177.533C527.944 174.856 527.541 172.196 526.774 169.631C526.073 167.207 524.956 164.923 523.473 162.882C522.004 160.929 520.136 159.312 517.993 158.14C515.682 156.974 513.129 156.367 510.541 156.367C507.953 156.367 505.4 156.974 503.089 158.14C500.965 159.31 499.12 160.928 497.682 162.882C496.171 164.913 495.037 167.199 494.332 169.631C493.566 172.195 493.179 174.857 493.185 177.533V179.116C493.178 181.804 493.565 184.479 494.332 187.055V187.055Z" fill="#180636"/>
</g>
<g filter="url(#filter7_d_28_46)">
<path d="M549.215 152.383H554.481L554.825 162.44C555.612 160.953 556.559 159.556 557.648 158.274C558.709 157.018 559.932 155.907 561.283 154.97C562.883 153.866 564.632 152.995 566.477 152.383C568.428 151.736 570.472 151.412 572.528 151.425C575.099 151.377 577.656 151.816 580.065 152.718C582.168 153.526 584.047 154.827 585.544 156.512C587.1 158.307 588.258 160.412 588.942 162.689C589.743 165.373 590.13 168.164 590.089 170.966V204.203H584.397V171.059C584.399 168.94 584.117 166.83 583.559 164.786C583.101 163.095 582.277 161.525 581.147 160.188C580.012 158.931 578.595 157.963 577.011 157.364C575.135 156.688 573.146 156.379 571.153 156.453C569.238 156.443 567.338 156.794 565.553 157.488C563.828 158.159 562.215 159.089 560.77 160.247C559.416 161.347 558.238 162.647 557.276 164.103C556.299 165.562 555.525 167.148 554.977 168.817V204.199H549.236L549.215 152.383Z" fill="#180636"/>
</g>
<g filter="url(#filter8_d_28_46)">
<path d="M161.227 204.665H59.6697L53.6528 194.239L57.2333 192.17L62.0579 200.526H161.227C163.082 200.524 164.904 200.035 166.511 199.107C168.118 198.179 169.453 196.845 170.383 195.239L216.906 114.573C217.832 112.964 218.32 111.14 218.32 109.283C218.32 107.426 217.832 105.601 216.906 103.992L170.383 23.3366C169.453 21.73 168.118 20.3957 166.511 19.4673C164.904 18.5389 163.082 18.0488 161.227 18.0461H68.1575C66.3027 18.0494 64.4813 18.5398 62.8752 19.4682C61.269 20.3966 59.9344 21.7305 59.0046 23.3366L17.6167 95.0733L14.0327 93.004L55.4241 21.2673C56.7168 19.0321 58.5733 17.1758 60.808 15.8842C63.0426 14.5926 65.577 13.9109 68.1575 13.9074H161.227C163.81 13.9086 166.348 14.5891 168.586 15.8808C170.824 17.1725 172.683 19.03 173.978 21.2673L220.5 101.93C221.787 104.169 222.464 106.707 222.464 109.29C222.464 111.873 221.787 114.41 220.5 116.65L173.978 197.315C172.681 199.55 170.821 201.406 168.584 202.696C166.346 203.985 163.809 204.664 161.227 204.665V204.665Z" fill="#180636"/>
</g>
<g filter="url(#filter9_d_28_46)">
<path d="M146.174 91.9176C145.273 91.9193 144.386 91.7002 143.589 91.2793C142.792 90.8585 142.111 90.2487 141.604 89.5034L142.776 88.7722C143.407 89.6577 144.355 90.2654 145.423 90.469C146.884 90.7311 148.548 90.2104 150.371 88.9205C149.575 87.3616 148.614 86.4442 147.514 86.1959C146.029 85.851 144.63 86.8063 143.93 87.403L143.038 86.3476C143.937 85.5889 145.75 84.3818 147.818 84.8508C149.475 85.2233 150.836 86.5753 151.867 88.855L152.094 89.3551L151.657 89.6999C149.72 91.1726 147.88 91.9176 146.174 91.9176Z" fill="#180636"/>
</g>
<path d="M199.448 100.464L194.906 98.3946C194.906 98.3946 192.617 100.309 192.042 102.109C191.439 104.006 191.797 107.596 192.731 108.21C193.727 108.858 193.765 104.689 195.267 105.261C196.77 105.834 197.408 107.71 197.301 109.29C198.676 106.186 199.199 105.706 199.448 100.464Z" fill="#180636"/>
<g filter="url(#filter10_d_28_46)">
<path d="M199.448 100.464L196.925 99.7121C196.129 99.4672 195.367 99.2396 194.633 98.9878L195.323 98.8947C194.775 99.474 194.273 100.094 193.82 100.75C193.608 101.061 193.419 101.388 193.255 101.726C193.178 101.878 193.113 102.036 193.062 102.199L192.996 102.423L192.948 102.668C192.838 103.404 192.816 104.151 192.883 104.892C192.914 105.275 192.969 105.651 193.034 106.013C193.092 106.347 193.186 106.673 193.313 106.986L193.355 107.086L193.393 107.155C193.393 107.175 193.417 107.206 193.427 107.22C193.432 107.222 193.437 107.224 193.44 107.228C193.444 107.232 193.446 107.236 193.448 107.241V107.217C193.433 107.199 193.412 107.187 193.389 107.182C193.357 107.157 193.321 107.138 193.282 107.124C193.224 107.099 193.162 107.08 193.1 107.069C193.016 107.058 192.932 107.058 192.848 107.069C192.765 107.078 192.682 107.098 192.604 107.127C192.48 107.17 192.372 107.246 192.29 107.348C192.29 107.348 192.314 107.306 192.342 107.244C192.397 107.12 192.466 106.944 192.535 106.758C192.684 106.316 192.858 105.882 193.055 105.458C193.196 105.16 193.38 104.886 193.603 104.644C193.774 104.465 193.974 104.316 194.196 104.206C194.466 104.073 194.766 104.01 195.068 104.023C195.204 104.028 195.339 104.049 195.471 104.085C195.574 104.111 195.674 104.146 195.771 104.189C195.912 104.249 196.051 104.318 196.184 104.396C196.448 104.544 196.69 104.727 196.904 104.941C197.307 105.336 197.631 105.804 197.859 106.32C198.067 106.798 198.207 107.303 198.272 107.82C198.338 108.323 198.338 108.832 198.272 109.334L196.394 108.869C196.739 108.179 197.128 107.489 197.47 106.848C197.82 106.216 198.112 105.553 198.341 104.868C198.576 104.178 198.755 103.444 198.927 102.702L199.448 100.464ZM199.448 100.464L199.516 101.019C199.537 101.219 199.561 101.436 199.575 101.623C199.606 102.009 199.63 102.395 199.647 102.785C199.683 103.576 199.656 104.368 199.568 105.154C199.52 105.558 199.447 105.959 199.351 106.355C199.248 106.751 199.134 107.144 199.006 107.517C198.745 108.269 198.469 108.976 198.204 109.679L196.391 114.508L196.329 109.214C196.329 108.543 196.169 107.882 195.864 107.286C195.735 107.035 195.559 106.812 195.347 106.627C195.254 106.55 195.154 106.485 195.047 106.43C194.997 106.403 194.945 106.38 194.892 106.361C194.847 106.337 194.892 106.361 194.892 106.361C194.892 106.361 194.95 106.379 194.981 106.361C195.071 106.365 195.161 106.349 195.243 106.313L195.333 106.258C195.282 106.337 195.236 106.419 195.195 106.503C195.068 106.772 194.94 107.151 194.795 107.565C194.715 107.8 194.623 108.03 194.52 108.255C194.447 108.412 194.362 108.563 194.265 108.707C194.072 108.991 193.802 109.212 193.486 109.345C193.361 109.397 193.228 109.43 193.093 109.441C192.957 109.461 192.819 109.461 192.683 109.441C192.564 109.423 192.448 109.389 192.338 109.341C192.253 109.303 192.17 109.259 192.09 109.21C191.985 109.136 191.885 109.056 191.79 108.969C191.745 108.924 191.697 108.879 191.659 108.838L191.573 108.724C191.515 108.648 191.456 108.569 191.404 108.489C191.353 108.41 191.325 108.348 191.287 108.276L191.177 108.065L191.101 107.869C190.924 107.393 190.801 106.899 190.732 106.396C190.662 105.931 190.625 105.462 190.622 104.992C190.594 104.042 190.703 103.093 190.946 102.175L191.063 101.809C191.111 101.685 191.167 101.561 191.218 101.44C191.327 101.21 191.45 100.988 191.587 100.774C191.841 100.377 192.131 100.003 192.452 99.6569C192.757 99.3237 193.08 99.0082 193.42 98.7119C193.756 98.4145 194.108 98.1359 194.475 97.8773L194.857 97.6048L195.171 97.7841C195.95 98.2256 196.701 98.6877 197.418 99.1361C198.135 99.5845 198.824 100.04 199.448 100.464Z" fill="#180636"/>
</g>
<g filter="url(#filter11_d_28_46)">
<path d="M85.4157 91.1899C84.3371 91.1899 78.5648 91.0105 74.302 87.3133C72.3894 85.751 71.0523 83.7541 70.5422 81.6813C69.915 79.1326 70.5422 76.2666 72.3618 73.1557L72.3859 73.1178C72.9606 72.2727 73.7036 71.5557 74.5682 71.0114C75.4328 70.4672 76.4004 70.1076 77.4104 69.9551C79.1334 69.6792 81.7766 69.8413 84.63 72.1521L84.6817 72.1969C85.3226 72.7901 85.843 73.2316 86.26 73.5765C86.7452 73.9556 87.1972 74.3756 87.6109 74.8319L86.0257 76.17C85.6863 75.8058 85.3187 75.4691 84.9263 75.1629C84.4956 74.8181 83.958 74.3559 83.2929 73.7386C81.0426 71.9279 79.0231 71.7899 77.724 71.9969C77.0024 72.1018 76.3101 72.354 75.69 72.7379C75.07 73.1217 74.5353 73.629 74.1193 74.2283C72.5789 76.846 72.0516 79.1878 72.5375 81.1847C72.9338 82.8022 74.0538 84.4542 75.6046 85.7165L75.6322 85.7372C79.6331 89.2171 85.4605 89.1136 85.5156 89.1171L85.5708 91.1864L85.4157 91.1899Z" fill="#180636"/>
</g>
<g filter="url(#filter12_d_28_46)">
<path d="M55.8304 195.643C55.3695 195.643 54.9184 195.51 54.5322 195.258C54.146 195.006 53.8415 194.647 53.6559 194.225C51.0817 188.707 47.0532 178.491 46.8809 178.06C42.6111 167.369 37.9933 147.531 39.4545 135.639C31.6249 129.679 25.4667 121.661 20.7524 111.321C18.9121 107.282 14.1082 95.3251 13.9049 94.8181L13.5603 93.9283L14.0014 93.073C20.1114 81.4882 31.0563 64.9543 31.1665 64.7922L31.6318 64.1024L32.4588 63.9265C40.5641 62.202 45.9642 61.4847 50.7233 60.857C55.6133 60.212 59.473 59.7016 64.5078 58.2807C67.4646 57.446 74.3637 58.3186 83.8061 59.6602C87.9414 60.2396 93.0624 60.9604 94.2306 60.8087H94.2513C98.2419 59.4843 106.361 58.1875 108.815 58.1875C115.845 58.1875 137.734 65.2405 138.661 65.5406L138.813 65.5957L163.856 75.9217L164.201 76.6115C166.11 80.4846 170.011 86.1856 172.702 86.7408C178.416 87.9169 195.898 95.532 201.784 98.3842L202.952 98.9499V100.247C202.952 121.733 187.751 125.037 182.758 126.113C182.458 126.175 182.196 126.234 181.976 126.286H181.941C162.643 130.569 148.7 131.411 140.326 128.807C133.241 132.152 123.998 134.066 118.643 134.967C111.099 137.526 96.9324 147.603 84.0887 159.554C69.6149 173.028 59.9244 185.824 58.1876 193.78C58.0806 194.277 57.8169 194.726 57.4353 195.062C57.0536 195.397 56.5744 195.601 56.0682 195.643H55.8304ZM43.3589 138.343C42.749 149.576 46.9705 167.127 50.7267 176.532C50.7612 176.622 53.2872 183.027 55.5961 188.403C60.6654 176.512 74.8358 162.475 81.2456 156.512C94.7751 143.923 109.328 133.663 117.464 130.99L117.616 130.942L117.775 130.918C124.625 129.772 130.635 128.196 135.322 126.406C135.181 126.303 135.043 126.196 134.905 126.086C133.707 125.156 132.742 123.96 132.084 122.593C131.426 121.226 131.094 119.725 131.114 118.208V118.136C131.314 112.556 135.25 108.655 140.708 108.638C141.9 108.609 143.086 108.818 144.196 109.253C145.306 109.688 146.319 110.341 147.173 111.173C148.112 112.103 148.852 113.214 149.35 114.439C149.847 115.663 150.092 116.976 150.068 118.298V118.367C149.968 121.23 148.218 123.661 145.533 125.717C152.029 126.641 162.884 126.275 181.004 122.268C181.249 122.209 181.531 122.147 181.855 122.078C186.376 121.095 198.2 118.529 198.772 101.543C191.938 98.3291 176.696 91.7934 171.841 90.7933C166.758 89.7586 162.298 81.9779 160.813 79.1464L137.28 69.4447C131.077 67.4374 114.056 62.3159 108.78 62.3159C106.692 62.3159 99.131 63.5402 95.578 64.7059C94.2478 65.2129 91.7253 64.9543 83.1961 63.754C77.1275 62.9022 67.9574 61.6123 65.6209 62.2745C60.3104 63.7747 56.1165 64.3438 51.2643 64.9715C46.7396 65.5647 41.6359 66.2407 34.144 67.8099C32.0763 70.9829 23.461 84.2197 18.1057 94.187C19.2774 97.0978 23.0027 106.299 24.519 109.624C28.613 118.591 33.8442 125.699 40.3711 131.107C44.4479 115.701 54.1315 106.151 65.9862 106.017C76.9069 106.017 85.7704 114.984 85.7704 125.993C85.778 129.357 84.9275 132.668 83.2992 135.611C81.671 138.555 79.3189 141.033 76.4658 142.813V142.813C69.0015 147.441 58.1118 146.513 46.5983 140.254C45.4909 139.647 44.4111 139.01 43.3589 138.343ZM43.9723 133.79C45.4567 134.808 46.9922 135.748 48.5729 136.608C58.5873 142.064 68.2158 143.061 74.2948 139.281C76.5497 137.87 78.408 135.906 79.6941 133.576C80.9803 131.246 81.6518 128.627 81.6454 125.965C81.6454 117.232 74.6359 110.128 66.0206 110.128C55.7443 110.248 47.3047 119.302 43.9827 133.79H43.9723ZM135.246 118.233C135.23 119.124 135.425 120.007 135.815 120.809C136.206 121.61 136.781 122.308 137.493 122.844C138.264 123.443 139.116 123.931 140.023 124.292C143.703 122.34 145.84 120.25 145.929 118.246C145.946 117.486 145.81 116.729 145.529 116.023C145.247 115.316 144.827 114.673 144.292 114.132C143.833 113.681 143.287 113.326 142.688 113.089C142.089 112.852 141.449 112.738 140.805 112.752H140.736C137.531 112.763 135.381 114.908 135.246 118.233V118.233Z" fill="#180636"/>
</g>
<defs>
<filter id="filter0_d_28_46" x="241.771" y="1.22467" width="87.9855" height="124.469" filterUnits="userSpaceOnUse" color-interpolation-filters="sRGB">
<feFlood flood-opacity="0" result="BackgroundImageFix"/>
<feColorMatrix in="SourceAlpha" type="matrix" values="0 0 0 0 0 0 0 0 0 0 0 0 0 0 0 0 0 0 127 0" result="hardAlpha"/>
<feOffset/>
<feGaussianBlur stdDeviation="6.5"/>
<feComposite in2="hardAlpha" operator="out"/>
<feColorMatrix type="matrix" values="0 0 0 0 1 0 0 0 0 1 0 0 0 0 1 0 0 0 0.25 0"/>
<feBlend mode="normal" in2="BackgroundImageFix" result="effect1_dropShadow_28_46"/>
<feBlend mode="normal" in="SourceGraphic" in2="effect1_dropShadow_28_46" result="shape"/>
</filter>
<filter id="filter1_d_28_46" x="320.305" y="27.1947" width="93.5509" height="97.1814" filterUnits="userSpaceOnUse" color-interpolation-filters="sRGB">
<feFlood flood-opacity="0" result="BackgroundImageFix"/>
<feColorMatrix in="SourceAlpha" type="matrix" values="0 0 0 0 0 0 0 0 0 0 0 0 0 0 0 0 0 0 127 0" result="hardAlpha"/>
<feOffset/>
<feGaussianBlur stdDeviation="6.5"/>
<feComposite in2="hardAlpha" operator="out"/>
<feColorMatrix type="matrix" values="0 0 0 0 1 0 0 0 0 1 0 0 0 0 1 0 0 0 0.25 0"/>
<feBlend mode="normal" in2="BackgroundImageFix" result="effect1_dropShadow_28_46"/>
<feBlend mode="normal" in="SourceGraphic" in2="effect1_dropShadow_28_46" result="shape"/>
</filter>
<filter id="filter2_d_28_46" x="238.915" y="120.507" width="72.6295" height="97.6545" filterUnits="userSpaceOnUse" color-interpolation-filters="sRGB">
<feFlood flood-opacity="0" result="BackgroundImageFix"/>
<feColorMatrix in="SourceAlpha" type="matrix" values="0 0 0 0 0 0 0 0 0 0 0 0 0 0 0 0 0 0 127 0" result="hardAlpha"/>
<feOffset/>
<feGaussianBlur stdDeviation="6.5"/>
<feComposite in2="hardAlpha" operator="out"/>
<feColorMatrix type="matrix" values="0 0 0 0 1 0 0 0 0 1 0 0 0 0 1 0 0 0 0.25 0"/>
<feBlend mode="normal" in2="BackgroundImageFix" result="effect1_dropShadow_28_46"/>
<feBlend mode="normal" in="SourceGraphic" in2="effect1_dropShadow_28_46" result="shape"/>
</filter>
<filter id="filter3_d_28_46" x="299.91" y="138.445" width="68.8265" height="79.7109" filterUnits="userSpaceOnUse" color-interpolation-filters="sRGB">
<feFlood flood-opacity="0" result="BackgroundImageFix"/>
<feColorMatrix in="SourceAlpha" type="matrix" values="0 0 0 0 0 0 0 0 0 0 0 0 0 0 0 0 0 0 127 0" result="hardAlpha"/>
<feOffset/>
<feGaussianBlur stdDeviation="6.5"/>
<feComposite in2="hardAlpha" operator="out"/>
<feColorMatrix type="matrix" values="0 0 0 0 1 0 0 0 0 1 0 0 0 0 1 0 0 0 0.25 0"/>
<feBlend mode="normal" in2="BackgroundImageFix" result="effect1_dropShadow_28_46"/>
<feBlend mode="normal" in="SourceGraphic" in2="effect1_dropShadow_28_46" result="shape"/>
</filter>
<filter id="filter4_d_28_46" x="367.783" y="138.424" width="60.2166" height="78.7823" filterUnits="userSpaceOnUse" color-interpolation-filters="sRGB">
<feFlood flood-opacity="0" result="BackgroundImageFix"/>
<feColorMatrix in="SourceAlpha" type="matrix" values="0 0 0 0 0 0 0 0 0 0 0 0 0 0 0 0 0 0 127 0" result="hardAlpha"/>
<feOffset/>
<feGaussianBlur stdDeviation="6.5"/>
<feComposite in2="hardAlpha" operator="out"/>
<feColorMatrix type="matrix" values="0 0 0 0 1 0 0 0 0 1 0 0 0 0 1 0 0 0 0.25 0"/>
<feBlend mode="normal" in2="BackgroundImageFix" result="effect1_dropShadow_28_46"/>
<feBlend mode="normal" in="SourceGraphic" in2="effect1_dropShadow_28_46" result="shape"/>
</filter>
<filter id="filter5_d_28_46" x="418.919" y="117.642" width="67.6981" height="100.514" filterUnits="userSpaceOnUse" color-interpolation-filters="sRGB">
<feFlood flood-opacity="0" result="BackgroundImageFix"/>
<feColorMatrix in="SourceAlpha" type="matrix" values="0 0 0 0 0 0 0 0 0 0 0 0 0 0 0 0 0 0 127 0" result="hardAlpha"/>
<feOffset/>
<feGaussianBlur stdDeviation="6.5"/>
<feComposite in2="hardAlpha" operator="out"/>
<feColorMatrix type="matrix" values="0 0 0 0 1 0 0 0 0 1 0 0 0 0 1 0 0 0 0.25 0"/>
<feBlend mode="normal" in2="BackgroundImageFix" result="effect1_dropShadow_28_46"/>
<feBlend mode="normal" in="SourceGraphic" in2="effect1_dropShadow_28_46" result="shape"/>
</filter>
<filter id="filter6_d_28_46" x="474.457" y="138.432" width="72.182" height="79.7404" filterUnits="userSpaceOnUse" color-interpolation-filters="sRGB">
<feFlood flood-opacity="0" result="BackgroundImageFix"/>
<feColorMatrix in="SourceAlpha" type="matrix" values="0 0 0 0 0 0 0 0 0 0 0 0 0 0 0 0 0 0 127 0" result="hardAlpha"/>
<feOffset/>
<feGaussianBlur stdDeviation="6.5"/>
<feComposite in2="hardAlpha" operator="out"/>
<feColorMatrix type="matrix" values="0 0 0 0 1 0 0 0 0 1 0 0 0 0 1 0 0 0 0.25 0"/>
<feBlend mode="normal" in2="BackgroundImageFix" result="effect1_dropShadow_28_46"/>
<feBlend mode="normal" in="SourceGraphic" in2="effect1_dropShadow_28_46" result="shape"/>
</filter>
<filter id="filter7_d_28_46" x="536.215" y="138.421" width="66.8774" height="78.7816" filterUnits="userSpaceOnUse" color-interpolation-filters="sRGB">
<feFlood flood-opacity="0" result="BackgroundImageFix"/>
<feColorMatrix in="SourceAlpha" type="matrix" values="0 0 0 0 0 0 0 0 0 0 0 0 0 0 0 0 0 0 127 0" result="hardAlpha"/>
<feOffset/>
<feGaussianBlur stdDeviation="6.5"/>
<feComposite in2="hardAlpha" operator="out"/>
<feColorMatrix type="matrix" values="0 0 0 0 1 0 0 0 0 1 0 0 0 0 1 0 0 0 0.25 0"/>
<feBlend mode="normal" in2="BackgroundImageFix" result="effect1_dropShadow_28_46"/>
<feBlend mode="normal" in="SourceGraphic" in2="effect1_dropShadow_28_46" result="shape"/>
</filter>
<filter id="filter8_d_28_46" x="1.03271" y="0.90741" width="234.432" height="216.758" filterUnits="userSpaceOnUse" color-interpolation-filters="sRGB">
<feFlood flood-opacity="0" result="BackgroundImageFix"/>
<feColorMatrix in="SourceAlpha" type="matrix" values="0 0 0 0 0 0 0 0 0 0 0 0 0 0 0 0 0 0 127 0" result="hardAlpha"/>
<feOffset/>
<feGaussianBlur stdDeviation="6.5"/>
<feComposite in2="hardAlpha" operator="out"/>
<feColorMatrix type="matrix" values="0 0 0 0 1 0 0 0 0 1 0 0 0 0 1 0 0 0 0.25 0"/>
<feBlend mode="normal" in2="BackgroundImageFix" result="effect1_dropShadow_28_46"/>
<feBlend mode="normal" in="SourceGraphic" in2="effect1_dropShadow_28_46" result="shape"/>
</filter>
<filter id="filter9_d_28_46" x="128.604" y="71.7456" width="36.49" height="33.172" filterUnits="userSpaceOnUse" color-interpolation-filters="sRGB">
<feFlood flood-opacity="0" result="BackgroundImageFix"/>
<feColorMatrix in="SourceAlpha" type="matrix" values="0 0 0 0 0 0 0 0 0 0 0 0 0 0 0 0 0 0 127 0" result="hardAlpha"/>
<feOffset/>
<feGaussianBlur stdDeviation="6.5"/>
<feComposite in2="hardAlpha" operator="out"/>
<feColorMatrix type="matrix" values="0 0 0 0 1 0 0 0 0 1 0 0 0 0 1 0 0 0 0.25 0"/>
<feBlend mode="normal" in2="BackgroundImageFix" result="effect1_dropShadow_28_46"/>
<feBlend mode="normal" in="SourceGraphic" in2="effect1_dropShadow_28_46" result="shape"/>
</filter>
<filter id="filter10_d_28_46" x="177.618" y="84.6048" width="35.0448" height="42.9029" filterUnits="userSpaceOnUse" color-interpolation-filters="sRGB">
<feFlood flood-opacity="0" result="BackgroundImageFix"/>
<feColorMatrix in="SourceAlpha" type="matrix" values="0 0 0 0 0 0 0 0 0 0 0 0 0 0 0 0 0 0 127 0" result="hardAlpha"/>
<feOffset/>
<feGaussianBlur stdDeviation="6.5"/>
<feComposite in2="hardAlpha" operator="out"/>
<feColorMatrix type="matrix" values="0 0 0 0 1 0 0 0 0 1 0 0 0 0 1 0 0 0 0.25 0"/>
<feBlend mode="normal" in2="BackgroundImageFix" result="effect1_dropShadow_28_46"/>
<feBlend mode="normal" in="SourceGraphic" in2="effect1_dropShadow_28_46" result="shape"/>
</filter>
<filter id="filter11_d_28_46" x="57.3061" y="56.8549" width="43.3048" height="47.335" filterUnits="userSpaceOnUse" color-interpolation-filters="sRGB">
<feFlood flood-opacity="0" result="BackgroundImageFix"/>
<feColorMatrix in="SourceAlpha" type="matrix" values="0 0 0 0 0 0 0 0 0 0 0 0 0 0 0 0 0 0 127 0" result="hardAlpha"/>
<feOffset/>
<feGaussianBlur stdDeviation="6.5"/>
<feComposite in2="hardAlpha" operator="out"/>
<feColorMatrix type="matrix" values="0 0 0 0 1 0 0 0 0 1 0 0 0 0 1 0 0 0 0.25 0"/>
<feBlend mode="normal" in2="BackgroundImageFix" result="effect1_dropShadow_28_46"/>
<feBlend mode="normal" in="SourceGraphic" in2="effect1_dropShadow_28_46" result="shape"/>
</filter>
<filter id="filter12_d_28_46" x="0.560303" y="44.9536" width="215.392" height="163.689" filterUnits="userSpaceOnUse" color-interpolation-filters="sRGB">
<feFlood flood-opacity="0" result="BackgroundImageFix"/>
<feColorMatrix in="SourceAlpha" type="matrix" values="0 0 0 0 0 0 0 0 0 0 0 0 0 0 0 0 0 0 127 0" result="hardAlpha"/>
<feOffset/>
<feGaussianBlur stdDeviation="6.5"/>
<feComposite in2="hardAlpha" operator="out"/>
<feColorMatrix type="matrix" values="0 0 0 0 1 0 0 0 0 1 0 0 0 0 1 0 0 0 0.25 0"/>
<feBlend mode="normal" in2="BackgroundImageFix" result="effect1_dropShadow_28_46"/>
<feBlend mode="normal" in="SourceGraphic" in2="effect1_dropShadow_28_46" result="shape"/>
</filter>
</defs>
</svg>
